<?xml version="1.0" encoding="utf-8"?>
<!-- Generator: Adobe Illustrator 23.1.1, SVG Export Plug-In . SVG Version: 6.00 Build 0)  -->
<svg version="1.1" xmlns="http://www.w3.org/2000/svg" xmlns:xlink="http://www.w3.org/1999/xlink" x="0px" y="0px"
	 viewBox="0 0 51.26 51.26" style="enable-background:new 0 0 51.26 51.26;" xml:space="preserve">
<style type="text/css">
	.st0{fill:#12284C;}
	.st1{fill:none;}
	.st2{fill:#647691;}
	.st3{fill:none;stroke:#12284C;stroke-width:1.25;stroke-linecap:round;stroke-linejoin:round;stroke-miterlimit:10;}
	.st4{fill:none;stroke:#12284C;stroke-width:1.3881;stroke-linejoin:round;stroke-miterlimit:10;}
	.st5{fill:none;stroke:#12284C;stroke-width:1.25;stroke-linecap:round;stroke-miterlimit:10;}
	.st6{fill-rule:evenodd;clip-rule:evenodd;fill:#12284C;}
</style>
<g id="Layer_1">
</g>
<g id="Layer_2">
	<g>
		<path class="st0" d="M43.18,22.31L26.22,9.84c-0.35-0.26-0.83-0.26-1.19,0l-8.55,6.29v-1.51h-4.66v4.93l-3.75,2.76
			c-0.44,0.33-0.54,0.95-0.21,1.4c0.33,0.44,0.95,0.54,1.4,0.21l16.37-12.04L42,23.92c0.18,0.13,0.39,0.19,0.59,0.19
			c0.31,0,0.61-0.14,0.81-0.41C43.72,23.27,43.63,22.64,43.18,22.31z"/>
		<polygon class="st0" points="12.09,23.57 12.09,41.61 21.81,41.61 21.81,29.14 29.71,29.14 29.71,41.61 39.52,41.61 39.52,23.57 
			25.8,13.55 		"/>
	</g>
</g>
</svg>
